<?xml version="1.0" encoding="UTF-8"?><svg xmlns="http://www.w3.org/2000/svg" xmlns:xlink="http://www.w3.org/1999/xlink" fill-opacity="1" color-rendering="auto" color-interpolation="auto" text-rendering="auto" stroke="black" stroke-linecap="square" width="230" stroke-miterlimit="10" shape-rendering="auto" stroke-opacity="1" fill="black" stroke-dasharray="none" font-weight="normal" stroke-width="1" height="230" font-family="'Dialog'" font-style="normal" stroke-linejoin="miter" font-size="12px" stroke-dashoffset="0" image-rendering="auto">
  <!--Generated by ySVG 2.6-->
  <defs id="genericDefs"/>
  <g>
    <defs id="defs1">
      <clipPath clipPathUnits="userSpaceOnUse" id="clipPath1">
        <path d="M0 0 L230 0 L230 230 L0 230 L0 0 Z"/>
      </clipPath>
      <clipPath clipPathUnits="userSpaceOnUse" id="clipPath2">
        <path d="M963 491 L1193 491 L1193 721 L963 721 L963 491 Z"/>
      </clipPath>
    </defs>
    <g fill="rgb(54,79,107)" text-rendering="geometricPrecision" shape-rendering="geometricPrecision" transform="matrix(1,0,0,1,-963,-491)" stroke="rgb(54,79,107)">
      <rect x="963" y="491" clip-path="url(#clipPath2)" width="230" rx="32" ry="32" height="230" stroke="none"/>
    </g>
    <g stroke-linecap="butt" font-size="56px" transform="matrix(1,0,0,1,-963,-491)" fill="rgb(245,245,245)" text-rendering="geometricPrecision" font-family="'Fira Mono'" shape-rendering="geometricPrecision" stroke="rgb(245,245,245)" stroke-miterlimit="1.45">
      <text x="990.0768" xml:space="preserve" y="569.3112" clip-path="url(#clipPath2)" stroke="none">GIPS</text>
      <path fill="none" d="M1092.1948 643.9828 L1107.8611 628.4332" stroke-width="7" clip-path="url(#clipPath2)"/>
      <path fill="none" d="M1030.5204 668.6621 L1058.4796 662.4259" stroke-width="7" clip-path="url(#clipPath2)"/>
      <path fill="none" d="M1130.5693 596.2464 L1155.741 542.7362" stroke-width="7" clip-path="url(#clipPath2)"/>
      <path d="M1163.9351 525.3173 L1145.4949 539.8503 L1164.4973 548.7892 Z" stroke-width="7" clip-path="url(#clipPath2)" stroke="none"/>
    </g>
    <g fill="rgb(63,193,201)" text-rendering="geometricPrecision" shape-rendering="geometricPrecision" transform="matrix(1,0,0,1,-963,-491)" stroke="rgb(63,193,201)">
      <circle r="20" clip-path="url(#clipPath2)" cx="1122.056" cy="614.344" stroke="none"/>
    </g>
    <g text-rendering="geometricPrecision" stroke-miterlimit="1.45" shape-rendering="geometricPrecision" transform="matrix(1,0,0,1,-963,-491)" stroke-linecap="butt">
      <circle fill="none" r="20" clip-path="url(#clipPath2)" cx="1122.056" cy="614.344"/>
    </g>
    <g fill="rgb(252,81,133)" text-rendering="geometricPrecision" shape-rendering="geometricPrecision" transform="matrix(1,0,0,1,-963,-491)" stroke="rgb(252,81,133)">
      <circle r="20" clip-path="url(#clipPath2)" cx="1078" cy="658.072" stroke="none"/>
    </g>
    <g text-rendering="geometricPrecision" stroke-miterlimit="1.45" shape-rendering="geometricPrecision" transform="matrix(1,0,0,1,-963,-491)" stroke-linecap="butt">
      <circle fill="none" r="20" clip-path="url(#clipPath2)" cx="1078" cy="658.072"/>
    </g>
    <g fill="rgb(63,193,201)" text-rendering="geometricPrecision" shape-rendering="geometricPrecision" transform="matrix(1,0,0,1,-963,-491)" stroke="rgb(63,193,201)">
      <circle r="20" clip-path="url(#clipPath2)" cx="1011" cy="673.016" stroke="none"/>
    </g>
    <g text-rendering="geometricPrecision" stroke-miterlimit="1.45" shape-rendering="geometricPrecision" transform="matrix(1,0,0,1,-963,-491)" stroke-linecap="butt">
      <circle fill="none" r="20" clip-path="url(#clipPath2)" cx="1011" cy="673.016"/>
    </g>
    <!-- <g stroke-linecap="butt" font-size="56px" transform="matrix(1,0,0,1,-963,-491)" fill="rgb(245,245,245)" text-rendering="geometricPrecision" font-family="'Fira Mono'" shape-rendering="geometricPrecision" stroke="rgb(245,245,245)" stroke-miterlimit="1.45">
      <text x="990.0768" xml:space="preserve" y="569.3112" clip-path="url(#clipPath2)" stroke="none">GIPS</text>
      <path fill="none" d="M1092.1948 643.9828 L1107.8611 628.4332" stroke-width="7" clip-path="url(#clipPath2)"/>
      <path fill="none" d="M1030.5204 668.6621 L1058.4796 662.4259" stroke-width="7" clip-path="url(#clipPath2)"/>
      <path fill="none" d="M1130.5693 596.2464 L1155.741 542.7362" stroke-width="7" clip-path="url(#clipPath2)"/>
      <path d="M1163.9351 525.3173 L1145.4949 539.8503 L1164.4973 548.7892 Z" stroke-width="7" clip-path="url(#clipPath2)" stroke="none"/>
    </g> -->
  </g>
</svg>
